<svg xmlns="http://www.w3.org/2000/svg" xmlns:xlink="http://www.w3.org/1999/xlink" width="264px" height="280px" viewBox="0 0 264 280" version="1.1">
    <title id="transparent_Title">Avataaar/Default</title>
    <desc>Created with python_avatars</desc>
    <defs>
        <path d="M100,0 C130.927946,-5.68137151e-15 156,25.072054 156,56 L156.000809,62.1660527 C161.675838,63.1185422 166,68.05429 166,74 L166,88 C166,94.0524166 161.519235,99.0582945 155.693975,99.8813638 C153.627928,119.686472 141.237929,136.421678 124.001014,144.610469 L124,163 L128,163 C167.764502,163 200,195.235498 200,235 L200,244 L0,244 L0,235 C-4.86974701e-15,195.235498 32.235498,163 72,163 L76,163 L75.9999836,144.610943 C58.7625487,136.422324 46.3721119,119.686854 44.3051107,99.8809698 C38.480765,99.0582945 34,94.0524166 34,88 L34,74 C34,68.053942 38.3246685,63.1179645 44.0001873,62.1658855 L44,56 C44,25.072054 69.072054,5.68137151e-15 100,0 Z" id="transparent_path-1" />
        <path d="M83,36.3476251 C83,52.6289957 105.161905,65.8276544 132.5,65.8276544 C159.838095,65.8276544 182,52.6289957 182,36.3476251 C182,34.9853134 181.844841,33.6445843 181.544472,32.3313638 C210.784239,41.4879251 232,68.792221 232,101.051724 L232,110 L32,110 L32,101.051724 C32,68.3970853 53.7386736,40.8197864 83.5337207,32.0021267 C83.1821692,33.4207025 83,34.871494 83,36.3476251 Z" id="transparent_path-3" />
        <rect id="transparent_path-5" x="0" y="0" width="264" height="280" />
        <path d="M74,0 C114.869071,0 148,33.1309285 148,74 L148,84.1482318 L148,197.608051 C135.525121,187.236892 119.490913,181 102,181 L102,181 L98,181 L98,162.610951 C115.530782,154.282984 128.048193,137.114792 129.791419,116.867187 C135.569129,116.002364 140,111.018625 140,105 L140,105 L140,92 C140,87.3536213 137.359271,83.3240177 133.496777,81.3301515 C132.723933,81.0500337 131.951808,80.748163 131.180891,80.4262497 C130.794819,80.3202581 130.400778,80.2331546 130,80.1659169 L130,80.1659169 L130.000458,79.9172528 C117.224481,74.2339715 104.877985,63.0706967 96.1104311,47.8848473 C93.1752556,42.8009742 90.8310687,37.5951441 89.0661426,32.3970356 C80.4313947,42.9409152 67.7445474,53.6023901 52.3415164,62.4953343 C42.777598,68.0170651 33.1467898,72.2910056 24,75.2659587 L24.0003852,137.246608 C29.6019576,148.318362 38.7728825,157.277529 50,162.610951 L50,162.610951 L50,181 L46,181 C38.3273639,181 30.9350359,182.200142 24.0004995,184.422941 L24,230 C24,244.105888 13.5691766,255.775526 0,257.716445 L0,74 C0,33.1309285 33.1309285,0 74,0 Z" id="transparent_path-7" />
    </defs>
    <g id="transparent_Avataaar/Default" stroke="none" stroke-width="1" fill="none" fill-rule="evenodd">
        <g id="transparent_Body" transform="translate(32.000000, 36.000000)">
            <mask id="transparent_mask-2" fill="white">
                <use xlink:href="#transparent_path-1" />
            </mask>
            <use fill="#D0C6AC" xlink:href="#transparent_path-1" />
            <g id="transparent_Skin-Color" mask="url(#transparent_mask-2)" fill="#D08B5B">
                <g transform="translate(-32.000000, 0.000000)" id="transparent_Color">
                    <rect x="0" y="0" width="264" height="244" />
                </g>
            </g>
            <path d="M44,94 C44,124.927946 69.072054,150 100,150 C130.927946,150 156,124.927946 156,94 L156,94 L156,102 C156,132.927946 130.927946,158 100,158 C69.072054,158 44,132.927946 44,102 Z" id="transparent_Neck-Shadow" fill-opacity="0.100000001" fill="#000000" mask="url(#transparent_mask-2)" />
        </g>
        <g id="transparent_Clothing" transform="translate(0.000000, 170.000000)">
            
        <defs>
        <path d="M196.000348,38.6320038 L196,110 L68,110 L67.999672,38.6319925 C75.8495147,34.0910485 84.6362412,30.9895697 93.9989132,29.6884945 L93.999,73.9993435 L170,73.9993435 L170.001087,29.6884945 C179.363767,30.9895707 188.1505,34.0910536 196.000348,38.6320038 Z" id="overall_path-1" />
    </defs>
    <g id="overall_Clothing/Overall" stroke="none" stroke-width="1" fill="none" fill-rule="evenodd">
        <mask id="overall_mask-2" fill="white">
            <use xlink:href="#overall_path-1" />
        </mask>
        <use id="overall_Overall" fill="#B7C1DB" xlink:href="#overall_path-1" />
        <g id="overall_Fabric-Color" mask="url(#overall_mask-2)" fill="#FF5C5C">
            <rect id="overall_ðŸ–Color" x="0" y="0" width="264" height="110" />
        </g>
        <circle id="overall_Button" fill="#F4F4F4" cx="81" cy="83" r="5" />
        <circle id="overall_Button" fill="#F4F4F4" cx="183" cy="83" r="5" />
    </g>
</g>
        <g id="transparent_Face" transform="translate(76.000000, 82.000000)" fill="#000000">
            <g id="transparent_Mouth" transform="translate(2.000000, 52.000000)">    
                
            <g id="default_Mouth/Default" stroke="none" stroke-width="1" fill="none" fill-rule="evenodd" fill-opacity="0.699999988">
        <path d="M40,15 C40,22.7319865 46.2680135,29 54,29 L54,29 C61.7319865,29 68,22.7319865 68,15" id="default_Mouth" fill="#000000" />
    </g>
</g>
            <g id="transparent_Nose" transform="translate(28.000000, 40.000000)" fill-opacity="0.16">
                
            <g id="small_Nose/Small" stroke="none" stroke-width="1" fill="none" fill-rule="evenodd"><path d="M20,7 C20,12.5228475 24.0470996,15 28,15 C31.9529004,15 36,12.5228475 36,7 C33.8327451,7.7317728 31.1406373,8.0976592 27.9236765,8.0976592 C24.7406373,8.0976592 22.0994118,7.7317728 20,7 Z" id="small_Nose" fill-opacity=".16" fill="#000" /></g></g>
            <g id="transparent_Eyes" transform="translate(0.000000, 8.000000)">
                
            <g id="eye_roll_Eyes/Eye-Roll-ðŸ™„" stroke="none" stroke-width="1" fill="none" fill-rule="evenodd">
        <circle id="eye_roll_Eyeball" fill="#FFFFFF" cx="30" cy="22" r="14" />
        <circle id="eye_roll_The-white-stuff" fill="#FFFFFF" cx="82" cy="22" r="14" />
        <circle id="eye_roll_Eye" fill-opacity="0.699999988" fill="#000000" cx="30" cy="14" r="6" />
        <circle id="eye_roll_Eye" fill-opacity="0.699999988" fill="#000000" cx="82" cy="14" r="6" />
    </g>
</g>
            <g id="transparent_Eyebrow" fill-opacity="0.599999964">
                
            <g id="angry_natural_Eyebrow/Natural/Angry-Natural" stroke="none" stroke-width="1" fill="none" fill-rule="evenodd" fill-opacity="0.599999964">
        <path d="M44.8565785,12.2282877 C44.8578785,12.2192877 44.8578785,12.2192877 44.8565785,12.2282877 M17.5862288,7.89238094 C15.2441598,8.3302947 13.0866155,9.78806858 12.1523766,12.0987479 C11.8009169,12.967391 11.3917103,14.9243181 11.7083227,15.8073302 C11.8284629,16.14295 12.0332321,16.1008692 12.9555234,16.0430509 C14.643791,15.9369937 16.9330912,13.6622369 18.7484684,13.2557982 C21.2753939,12.6899315 23.9825295,13.1148447 26.4961798,13.6882381 C30.8109365,14.6725177 36.4854008,17.7875215 40.9461842,16.1699775 C41.2783949,16.0495512 45.6210294,12.9225732 44.3685187,12.2769925 C43.9238011,11.9068186 41.1370145,12.0854053 40.6216067,11.9988489 C38.2277647,11.5971998 35.7297127,10.9345131 33.373373,10.3265657 C28.2329017,9.00016592 22.9666484,6.88073171 17.5862288,7.89238094" id="angry_natural_Eyebrows-The-Web" fill="#000000" transform="translate(28.094701, 12.127505) rotate(17.000000) translate(-28.094701, -12.127505) " />
        <path d="M100.918293,12.2094196 C100.919593,12.2004196 100.919593,12.2004196 100.918293,12.2094196 M73.5862288,7.89238094 C71.2441598,8.3302947 69.0866155,9.78806858 68.1523766,12.0987479 C67.8009169,12.967391 67.3917103,14.9243181 67.7083227,15.8073302 C67.8284629,16.14295 68.0332321,16.1008692 68.9555234,16.0430509 C70.643791,15.9369937 72.9330912,13.6622369 74.7484684,13.2557982 C77.2753939,12.6899315 79.9825295,13.1148447 82.4961798,13.6882381 C86.8109365,14.6725177 92.4854008,17.7875215 96.9461842,16.1699775 C97.2783949,16.0495512 101.621029,12.9225732 100.368519,12.2769925 C99.9238011,11.9068186 97.1370145,12.0854053 96.6216067,11.9988489 C94.2277647,11.5971998 91.7297127,10.9345131 89.373373,10.3265657 C84.2329017,9.00016592 78.9666484,6.88073171 73.5862288,7.89238094" id="angry_natural_Eyebrows-The-Web" fill="#000000" transform="translate(84.094701, 12.127505) scale(-1, 1) rotate(17.000000) translate(-84.094701, -12.127505) " />
    </g>
</g>
        </g>
        <g id="transparent_Top">
            
        <defs>
        <path d="M66,0 C102.450793,-6.69590214e-15 132,29.5492065 132,66 L132,71 L132,71 L0,71 L0,66 C-4.46393476e-15,29.5492065 29.5492065,6.69590214e-15 66,0 Z" id="winter_hat_3_path-1" />
        <path d="M67.2845981,61.4514245 C83.2297066,49.8171415 105.159178,44 133.073012,44 C160.985408,44 182.871591,49.8165424 198.731559,61.4496271 C200.786178,62.9566691 202,65.3523287 202,67.9003936 L202,98.3697692 C201.999998,100.578907 200.209138,102.369767 198,102.369767 C197.244438,102.369767 196.504327,102.155772 195.86535,101.752557 C179.223259,91.2508523 158.53625,86 133.804323,86 C108.883259,86 87.6403936,91.3314713 70.075727,101.994414 C68.1873197,103.140807 65.7271281,102.539284 64.5807363,100.650876 C64.2008721,100.02514 64,99.3071624 64,98.5751498 L64,67.914014 C63.999995,65.3588919 65.2205111,62.957477 67.2845981,61.4514245 Z" id="winter_hat_3_path-3" />
        <filter x="-0.7%" y="-1.7%" width="101.4%" height="106.8%" filterUnits="objectBoundingBox" id="winter_hat_3_filter-4">
            <feOffset dx="0" dy="2" in="SourceAlpha" result="shadowOffsetOuter1" />
            <feColorMatrix values="0 0 0 0 0   0 0 0 0 0   0 0 0 0 0  0 0 0 0.1 0" type="matrix" in="shadowOffsetOuter1" />
        </filter>
    </defs>
    <g id="winter_hat_3_Facial-Hair" transform="translate(49.000000, 72.000000)" />
    <g id="winter_hat_3_Top/Accessories/Winter-Hat-3" stroke="none" stroke-width="1" fill="none" fill-rule="evenodd">
        <g id="winter_hat_3_hat" transform="translate(67.000000, 12.000000)">
            <circle id="winter_hat_3_puff" fill="#F4F4F4" cx="66" cy="8" r="20" />
            <mask id="winter_hat_3_mask-2" fill="white">
                <use xlink:href="#winter_hat_3_path-1" />
            </mask>
            <use id="winter_hat_3_hat-mask" fill="#D8D8D8" xlink:href="#winter_hat_3_path-1" />
            <g id="winter_hat_3_Fabric-Color" mask="url(#winter_hat_3_mask-2)" fill="#B1E2FF">
                <g transform="translate(-3.771429, -12.000000)" id="winter_hat_3_ðŸ–Color">
                    <rect x="0" y="0" width="140" height="191" />
                </g>
            </g>
        </g>
        <g id="winter_hat_3_hat-front">
            <use fill="black" fill-opacity="1" filter="url(#winter_hat_3_filter-4)" xlink:href="#winter_hat_3_path-3" />
            <use fill="#F4F4F4" fill-rule="evenodd" xlink:href="#winter_hat_3_path-3" />
        </g>
        <g id="winter_hat_3_Accessory" transform="translate(62.000000, 85.000000)"><defs>
        <path d="M102,3 C110.919724,3 118.702944,7.86594657 122.839966,15.0881434 C123.049977,15.0306809 123.271405,15 123.5,15 L131.5,15 C132.880712,15 134,16.1192881 134,17.5 C134,18.8807119 132.880712,20 131.5,20 L124.963112,19.9999542 C125.63735,22.2145597 126,24.5649291 126,27 C126,40.254834 115.254834,51 102,51 C88.745166,51 78,40.254834 78,27 C78,25.5817328 78.1230214,24.1921987 78.3589754,22.8414867 C78.2814883,18.460693 74.9167538,15 70.8624171,15 C67.1244063,15 63.9725878,17.9417418 63.4412238,21.8340095 C63.8076631,23.4981856 64,25.2266315 64,27 C64,40.254834 53.254834,51 40,51 C26.745166,51 16,40.254834 16,27 C16,24.5649291 16.3626501,22.2145597 17.0368877,19.9999542 L10.5,20 C9.11928813,20 8,18.8807119 8,17.5 C8,16.1192881 9.11928813,15 10.5,15 L18.5,15 C18.7285947,15 18.9500235,15.0306809 19.1603931,15.0881495 C23.2970555,7.86594657 31.0802764,3 40,3 C49.3522436,3 57.4550935,8.34929022 61.4157763,16.1550973 C63.492635,13.0394413 66.9492812,11 70.8624171,11 C74.874933,11 78.4074783,13.1443461 80.4650049,16.3947271 C84.3793874,8.45920672 92.5521607,3 102,3 Z M40,7 C28.954305,7 20,15.954305 20,27 C20,38.045695 28.954305,47 40,47 C51.045695,47 60,38.045695 60,27 C60,15.954305 51.045695,7 40,7 Z M102,7 C90.954305,7 82,15.954305 82,27 C82,38.045695 90.954305,47 102,47 C113.045695,47 122,38.045695 122,27 C122,15.954305 113.045695,7 102,7 Z" id="round_path-1" />
        <filter x="-0.8%" y="-2.1%" width="101.6%" height="108.3%" filterUnits="objectBoundingBox" id="round_filter-2">
            <feOffset dx="0" dy="2" in="SourceAlpha" result="shadowOffsetOuter1" />
            <feColorMatrix values="0 0 0 0 0   0 0 0 0 0   0 0 0 0 0  0 0 0 0.1 0" type="matrix" in="shadowOffsetOuter1" />
        </filter>
    </defs>
    <g id="round_Top/_Resources/Round" stroke="none" stroke-width="1" fill="none" fill-rule="evenodd">
        <g id="round_Lennon-Glasses">
            <use fill="black" fill-opacity="1" filter="url(#round_filter-2)" xlink:href="#round_path-1" />
            <use fill="#252C2F" fill-rule="evenodd" xlink:href="#round_path-1" />
        </g>
    </g>
</g>
    </g>
</g>
    </g>
</svg>