<svg xmlns="http://www.w3.org/2000/svg" xmlns:dc="http://purl.org/dc/elements/1.1/" xmlns:ns3="http://creativecommons.org/ns#" xmlns:ns5="http://design.blush" xmlns:rdf="http://www.w3.org/1999/02/22-rdf-syntax-ns#" xmlns:xlink="http://www.w3.org/1999/xlink" width="264px" height="280px" viewBox="0 0 264 280" version="1.1">
    <title id="circle_Title">Avataaar/Circle</title>
    <desc>Created with python_avatars</desc>
    <defs>
        <circle id="circle_path-1" cx="120" cy="120" r="120" />
        <path d="M-3.19744231e-14,160 L-3.19744231e-14,-1.42108547e-14 L264,-1.42108547e-14 L264,160 L252,160 C252,226.27417 198.27417,280 132,280 C65.72583,280 12,226.27417 12,160 L12,160 L-3.19744231e-14,160 Z" id="circle_path-3" />
        <path d="M100,0 C130.927946,-5.68137151e-15 156,25.072054 156,56 L156.000809,62.1660527 C161.675838,63.1185422 166,68.05429 166,74 L166,88 C166,94.0524166 161.519235,99.0582945 155.693975,99.8813638 C153.627928,119.686472 141.237929,136.421678 124.001014,144.610469 L124,163 L128,163 C167.764502,163 200,195.235498 200,235 L200,244 L0,244 L0,235 C-4.86974701e-15,195.235498 32.235498,163 72,163 L76,163 L75.9999836,144.610943 C58.7625487,136.422324 46.3721119,119.686854 44.3051107,99.8809698 C38.480765,99.0582945 34,94.0524166 34,88 L34,74 C34,68.053942 38.3246685,63.1179645 44.0001873,62.1658855 L44,56 C44,25.072054 69.072054,5.68137151e-15 100,0 Z" id="circle_path-5" />
        <path d="M83,36.3476251 C83,52.6289957 105.161905,65.8276544 132.5,65.8276544 C159.838095,65.8276544 182,52.6289957 182,36.3476251 C182,34.9853134 181.844841,33.6445843 181.544472,32.3313638 C210.784239,41.4879251 232,68.792221 232,101.051724 L232,110 L32,110 L32,101.051724 C32,68.3970853 53.7386736,40.8197864 83.5337207,32.0021267 C83.1821692,33.4207025 83,34.871494 83,36.3476251 Z" id="circle_path-7" />
        <rect id="circle_path-9" x="0" y="0" width="264" height="280" />
        <path d="M74,0 C114.869071,0 148,33.1309285 148,74 L148,84.1482318 L148,197.608051 C135.525121,187.236892 119.490913,181 102,181 L102,181 L98,181 L98,162.610951 C115.530782,154.282984 128.048193,137.114792 129.791419,116.867187 C135.569129,116.002364 140,111.018625 140,105 L140,105 L140,92 C140,87.3536213 137.359271,83.3240177 133.496777,81.3301515 C132.723933,81.0500337 131.951808,80.748163 131.180891,80.4262497 C130.794819,80.3202581 130.400778,80.2331546 130,80.1659169 L130,80.1659169 L130.000458,79.9172528 C117.224481,74.2339715 104.877985,63.0706967 96.1104311,47.8848473 C93.1752556,42.8009742 90.8310687,37.5951441 89.0661426,32.3970356 C80.4313947,42.9409152 67.7445474,53.6023901 52.3415164,62.4953343 C42.777598,68.0170651 33.1467898,72.2910056 24,75.2659587 L24.0003852,137.246608 C29.6019576,148.318362 38.7728825,157.277529 50,162.610951 L50,162.610951 L50,181 L46,181 C38.3273639,181 30.9350359,182.200142 24.0004995,184.422941 L24,230 C24,244.105888 13.5691766,255.775526 0,257.716445 L0,74 C0,33.1309285 33.1309285,0 74,0 Z" id="circle_path-11" />
    </defs>
    <g id="circle_Avataaar/Circle" stroke="none" stroke-width="1" fill="none" fill-rule="evenodd">
        <g id="circle_Circle" transform="translate(12.000000, 40.000000)">
            <mask id="circle_mask-2" fill="white">
                <use xlink:href="#circle_path-1" />
            </mask>
            <use id="circle_Background-Color" fill="#65C9FF" xlink:href="#circle_path-1" />
            <g id="circle_Fabric-Color" mask="url(#circle_mask-2)" fill="">
                <rect id="circle_ðŸ–Color" x="0" y="0" width="240" height="240" />
            </g>
        </g>
        <mask id="circle_mask-4" fill="white">
            <use xlink:href="#circle_path-3" />
        </mask>
        <g id="circle_Mask" />
        <g id="circle_Avataaar" mask="url(#circle_mask-4)">
            <g id="circle_Body" transform="translate(32.000000, 36.000000)">
                <mask id="circle_mask-6" fill="white">
                    <use xlink:href="#circle_path-5" />
                </mask>
                <use fill="#D0C6AC" xlink:href="#circle_path-5" />
                <g id="circle_Skin-Color" mask="url(#circle_mask-6)" fill="#EDB98A">
                    <g transform="translate(-32.000000, 0.000000)" id="circle_Color">
                        <rect x="0" y="0" width="264" height="244" />
                    </g>
                </g>
                <path d="M44,94 C44,124.927946 69.072054,150 100,150 C130.927946,150 156,124.927946 156,94 L156,94 L156,102 C156,132.927946 130.927946,158 100,158 C69.072054,158 44,132.927946 44,102 Z" id="circle_Neck-Shadow" fill-opacity="0.100000001" fill="#000000" mask="url(#circle_mask-6)" />
            </g>
            <g id="circle_Clothing" transform="translate(0.000000, 170.000000)">
                
            <metadata id="gladiator_metadata28">
    <rdf:RDF>
      <ns3:Work rdf:about="">
        <dc:format>image/svg+xml</dc:format>
        <dc:type rdf:resource="http://purl.org/dc/dcmitype/StillImage" />
        <dc:title />
      </ns3:Work>
    </rdf:RDF>
  </metadata>
  <defs id="gladiator_defs26" />
  <g id="gladiator_Clothing/Gladiator" stroke="none" stroke-width="1" fill="none" fill-rule="evenodd">
    <g id="gladiator_Armor" transform="translate(56.000000, 27.000000)">
      <path id="gladiator_Fill-1" d="M 43.599609 1.0859375 C 25.891609 1.0859375 14.720703 7.0800781 14.720703 7.0800781 L 14.720703 38.820312 C 14.720703 39.109747 14.746878 39.392515 14.763672 39.677734 L 0.56054688 53.388672 L 0.56054688 83.634766 L 62.761719 83.634766 L 90.458984 83.634766 L 152.66016 83.634766 L 152.66016 53.388672 L 138.69922 39.912109 C 138.72634 39.550498 138.75391 39.188863 138.75391 38.820312 L 138.75391 7.0800781 C 138.75391 7.0800781 127.58495 1.0859375 109.87695 1.0859375 L 109.87695 22.884766 L 90.458984 22.884766 L 62.761719 22.884766 L 43.599609 22.884766 L 43.599609 1.0859375 z " transform="translate(-0.56,-1.0865385)" style="fill:#60ade6;fill-opacity:1" />
      <g id="gladiator_Fabric-Color" mask="url(#gladiator_fabric-mask)" fill="#25557C">
        <rect x="0" y="0" width="264" height="110" id="gladiator_rect10" />
      </g>
      <mask id="gladiator_fabric-mask" fill="white">
        <use xlink:href="#gladiator_Fill-1" id="gladiator_use13" />
        <path d="m 14.1613,5.9939 c 0,0 11.17,-5.994 28.878,-5.994 v 37.734 c 0,7.975 -6.464,14.44 -14.439,14.44 v 0 c -7.974,0 -14.439,-6.465 -14.439,-14.44 z" id="gladiator_use15" fill="#60ade6" ns5:color="Top-500" />
        <path d="m 138.1945,5.9939 c 0,0 -11.17,-5.994 -28.878,-5.994 v 37.734 c 0,7.975 6.464,14.44 14.439,14.44 7.974,0 14.439,-6.465 14.439,-14.44 z" id="gladiator_use17" fill="#60ade6" ns5:color="Top-500" />
      </mask>
      <g id="gladiator_g849">
        <path d="M36.5011,37.0515 C36.5011,40.9635 33.3301,44.1345 29.4181,44.1345 C25.5051,44.1345 22.3341,40.9635 22.3341,37.0515 C22.3341,33.1395 25.5051,29.9685 29.4181,29.9685 C33.3301,29.9685 36.5011,33.1395 36.5011,37.0515" id="gladiator_Fill-10" fill-opacity=".24" fill="#000" />
        <path d="M130.839,37.0515 C130.839,40.9635 127.667,44.1345 123.755,44.1345 C119.843,44.1345 116.672,40.9635 116.672,37.0515 C116.672,33.1395 119.843,29.9685 123.755,29.9685 C127.667,29.9685 130.839,33.1395 130.839,37.0515" id="gladiator_Fill-12" fill-opacity=".24" fill="#000" />
        <path d="M33.6227,82.5486 L62.2017,82.5486 L89.8987,82.5486 L119.0577,82.5486 C112.9127,64.8676 96.1137,52.1736 76.3397,52.1736 C56.5667,52.1736 39.7687,64.8676 33.6227,82.5486" id="gladiator_Fill-14" fill-opacity=".24" fill="#000" />
        <path id="gladiator_Fill-2-8" d="m 43.038543,21.799022 v 15.935547 c 0,7.975 -6.464453,14.439453 -14.439453,14.439453 -7.684602,0 -13.948588,-6.008382 -14.394531,-13.582031 L 11.5112,41.1916 c 0.651,8.879001 8.042891,15.886719 17.08789,15.886719 9.474001,0 17.154297,-7.680297 17.154297,-17.154297 v -18.125 z" style="fill:#000000;fill-opacity:0.23999999" />
        <path id="gladiator_Fill-6-0" d="m 106.60281,21.799022 v 18.125 c 0,9.474 7.67834,17.152344 17.15235,17.152344 9.04599,-10e-7 16.43784,-7.005766 17.08984,-15.884766 l -2.69336,-2.599609 c -0.44594,7.573649 -6.71188,13.582031 -14.39648,13.582031 -7.975,0 -14.4375,-6.464453 -14.4375,-14.439453 V 21.799022 Z" style="fill:#000000;fill-opacity:0.23999999" />
      </g>
    </g>
  </g>
</g>
            <g id="circle_Face" transform="translate(76.000000, 82.000000)" fill="#000000">
                <g id="circle_Mouth" transform="translate(2.000000, 52.000000)">    
                    
                <g id="big_smile_Mouth/Big Smile" stroke="none" stroke-width="1" fill="none" fill-rule="evenodd"><path d="M29,15.6086957 C30.410031,25.2313711 38.062182,35 54,35 C69.937818,35 77.6461342,25.183301 79,14.7391304 C79.1012093,14.3397326 78.775269,13 76.826087,13 C56.838426,13 41.7395748,13 31.173913,13 C29.3833142,13 28.870211,14.2404669 29,15.6086957 Z" id="big_smile_Mouth" fill-opacity=".7" fill="#000" /><path d="M70,13 C70,15.7614237 67.7614237,18 65,18 L44,18 C41.2385763,18 39,15.7614237 39,13 L70,13 Z" id="big_smile_Path" fill="#FFF" /></g></g>
                <g id="circle_Nose" transform="translate(28.000000, 40.000000)" fill-opacity="0.16">
                    
                <g id="small_Nose/Small" stroke="none" stroke-width="1" fill="none" fill-rule="evenodd"><path d="M20,7 C20,12.5228475 24.0470996,15 28,15 C31.9529004,15 36,12.5228475 36,7 C33.8327451,7.7317728 31.1406373,8.0976592 27.9236765,8.0976592 C24.7406373,8.0976592 22.0994118,7.7317728 20,7 Z" id="small_Nose" fill-opacity=".16" fill="#000" /></g></g>
                <g id="circle_Eyes" transform="translate(0.000000, 8.000000)">
                    
                <g id="surprised_Eyes/Surprised-ðŸ˜³" stroke="none" stroke-width="1" fill="none" fill-rule="evenodd">
        <circle id="surprised_The-White-Stuff" fill="#FFFFFF" cx="30" cy="22" r="14" />
        <circle id="surprised_Eye-Ball" fill="#FFFFFF" cx="82" cy="22" r="14" />
        <circle id="surprised_Eye" fill-opacity="0.699999988" fill="#000000" cx="30" cy="22" r="6" />
        <circle id="surprised_Eye" fill-opacity="0.699999988" fill="#000000" cx="82" cy="22" r="6" />
    </g>
</g>
                <g id="circle_Eyebrow" fill-opacity="0.599999964">
                    
                <g id="up_down_natural_Eyebrow/Natural/Up-Down-Natural" stroke="none" stroke-width="1" fill="none" fill-rule="evenodd" fill-opacity="0.599999964">
        <path d="M22.7663531,1.57844898 L23.6772984,1.17582144 C28.9190996,-0.905265751 36.8645466,-0.0328729562 41.7227321,2.29911638 C42.2897848,2.57148957 41.9021563,3.4519421 41.3211012,3.40711006 C26.4021788,2.25602197 16.3582869,11.5525942 12.9460869,17.8470939 C12.8449215,18.0337142 12.5391523,18.05489 12.4635344,17.8808353 C10.156283,12.5620676 16.9134476,3.89614725 22.7663531,1.57844898 Z" id="up_down_natural_Eye-Browse-Reddit" fill="#000000" />
        <path d="M86.535177,12.0246305 C92.3421916,12.2928751 101.730304,16.5124899 101.488432,22.3684172 C101.480419,22.5600881 101.1989,22.6442368 101.06135,22.496811 C98.306449,19.5374968 78.7459953,16.5471364 71.8564209,18.1317995 C71.2258949,18.2770375 70.7468448,17.6550104 71.1462176,17.2056651 C74.5683263,13.3574126 81.3327077,11.7792465 86.535177,12.0246305 Z" id="up_down_natural_Eyebrow" fill="#000000" transform="translate(86.246508, 17.285912) rotate(5.000000) translate(-86.246508, -17.285912) " />
    </g>
</g>
            </g>
            <g id="circle_Top">
                
            <defs>
        <path d="M94.0001685,1 C118.30504,1.44935656 140.861928,6.81215989 149.000169,17 C161.324059,32.4276364 186.868727,91.0786423 187.000841,126 C187.093514,150.800049 177.46255,175.65995 164.000169,177 C152.920557,178.102868 137.475641,175.511355 118.000132,173.997352 L118.000016,161.610943 C136.730391,152.713105 149.737808,133.723813 149.996083,111.669251 L150,111 L149.999122,82.98779 C140.477154,78.12967 131.861155,72.2466611 124.151126,65.3387631 C127.360925,70.6350671 130.848039,75.146796 134.61311,78.8730846 C107.596133,71.2927661 86.1052394,58.4499395 70.1404292,40.3446049 C62.1596386,56.809628 51.4461296,69.8143795 38.0000981,79.3594824 L38,111 C38,133.338465 51.0795991,152.622027 69.998216,161.610103 L69.9991535,174.745766 C50.3621295,177.434364 34.6408296,182.16349 23.3845374,181.000327 C9.16164761,179.530612 1.49623627,150.795665 1,126 C0.382878875,95.1640258 29.3189583,30.7950013 40,18 C47.9231015,8.50878211 69.6952966,0.550643437 94.0001685,1 Z" id="bob_path-1" />
    </defs>
    <g id="bob_Top/Long-Hair/Bob" stroke="none" stroke-width="1" fill="none" fill-rule="evenodd">
        <g id="bob_Hair" transform="translate(38.000000, 19.000000)">
            <mask id="bob_mask-2" fill="white">
                <use xlink:href="#bob_path-1" />
            </mask>
            <use id="bob_Combined-Shape" fill="#E6E6E6" xlink:href="#bob_path-1" />
            <g id="bob_Hair-Color" mask="url(#bob_mask-2)" fill="#E8E1E1">
                <g transform="translate(-38.000000, -19.000000)" id="bob_Color">
                    <rect x="0" y="0" width="266" height="280" />
                </g>
            </g>
        </g>
        <g id="bob_Facial-Hair" transform="translate(49.000000, 72.000000)" />
        <g id="bob_Accessory" transform="translate(62.000000, 85.000000)" />
    </g>
</g>
        </g>
    </g>
</svg>