<svg xmlns="http://www.w3.org/2000/svg" xmlns:xlink="http://www.w3.org/1999/xlink" width="264px" height="280px" viewBox="0 0 264 280" version="1.1">
    <title id="transparent_Title">Avataaar/Default</title>
    <desc>Created with python_avatars</desc>
    <defs>
        <path d="M100,0 C130.927946,-5.68137151e-15 156,25.072054 156,56 L156.000809,62.1660527 C161.675838,63.1185422 166,68.05429 166,74 L166,88 C166,94.0524166 161.519235,99.0582945 155.693975,99.8813638 C153.627928,119.686472 141.237929,136.421678 124.001014,144.610469 L124,163 L128,163 C167.764502,163 200,195.235498 200,235 L200,244 L0,244 L0,235 C-4.86974701e-15,195.235498 32.235498,163 72,163 L76,163 L75.9999836,144.610943 C58.7625487,136.422324 46.3721119,119.686854 44.3051107,99.8809698 C38.480765,99.0582945 34,94.0524166 34,88 L34,74 C34,68.053942 38.3246685,63.1179645 44.0001873,62.1658855 L44,56 C44,25.072054 69.072054,5.68137151e-15 100,0 Z" id="transparent_path-1" />
        <path d="M83,36.3476251 C83,52.6289957 105.161905,65.8276544 132.5,65.8276544 C159.838095,65.8276544 182,52.6289957 182,36.3476251 C182,34.9853134 181.844841,33.6445843 181.544472,32.3313638 C210.784239,41.4879251 232,68.792221 232,101.051724 L232,110 L32,110 L32,101.051724 C32,68.3970853 53.7386736,40.8197864 83.5337207,32.0021267 C83.1821692,33.4207025 83,34.871494 83,36.3476251 Z" id="transparent_path-3" />
        <rect id="transparent_path-5" x="0" y="0" width="264" height="280" />
        <path d="M74,0 C114.869071,0 148,33.1309285 148,74 L148,84.1482318 L148,197.608051 C135.525121,187.236892 119.490913,181 102,181 L102,181 L98,181 L98,162.610951 C115.530782,154.282984 128.048193,137.114792 129.791419,116.867187 C135.569129,116.002364 140,111.018625 140,105 L140,105 L140,92 C140,87.3536213 137.359271,83.3240177 133.496777,81.3301515 C132.723933,81.0500337 131.951808,80.748163 131.180891,80.4262497 C130.794819,80.3202581 130.400778,80.2331546 130,80.1659169 L130,80.1659169 L130.000458,79.9172528 C117.224481,74.2339715 104.877985,63.0706967 96.1104311,47.8848473 C93.1752556,42.8009742 90.8310687,37.5951441 89.0661426,32.3970356 C80.4313947,42.9409152 67.7445474,53.6023901 52.3415164,62.4953343 C42.777598,68.0170651 33.1467898,72.2910056 24,75.2659587 L24.0003852,137.246608 C29.6019576,148.318362 38.7728825,157.277529 50,162.610951 L50,162.610951 L50,181 L46,181 C38.3273639,181 30.9350359,182.200142 24.0004995,184.422941 L24,230 C24,244.105888 13.5691766,255.775526 0,257.716445 L0,74 C0,33.1309285 33.1309285,0 74,0 Z" id="transparent_path-7" />
    </defs>
    <g id="transparent_Avataaar/Default" stroke="none" stroke-width="1" fill="none" fill-rule="evenodd">
        <g id="transparent_Body" transform="translate(32.000000, 36.000000)">
            <mask id="transparent_mask-2" fill="white">
                <use xlink:href="#transparent_path-1" />
            </mask>
            <use fill="#D0C6AC" xlink:href="#transparent_path-1" />
            <g id="transparent_Skin-Color" mask="url(#transparent_mask-2)" fill="#FD9841">
                <g transform="translate(-32.000000, 0.000000)" id="transparent_Color">
                    <rect x="0" y="0" width="264" height="244" />
                </g>
            </g>
            <path d="M44,94 C44,124.927946 69.072054,150 100,150 C130.927946,150 156,124.927946 156,94 L156,94 L156,102 C156,132.927946 130.927946,158 100,158 C69.072054,158 44,132.927946 44,102 Z" id="transparent_Neck-Shadow" fill-opacity="0.100000001" fill="#000000" mask="url(#transparent_mask-2)" />
        </g>
        <g id="transparent_Clothing" transform="translate(0.000000, 170.000000)">
            
        </g>
        <g id="transparent_Face" transform="translate(76.000000, 82.000000)" fill="#000000">
            <g id="transparent_Mouth" transform="translate(2.000000, 52.000000)">    
                
            <defs>
        <path d="M29,15.6086957 C30.410031,25.2313711 41.062182,33 54,33 C66.9681454,33 77.6461342,25.183301 79,14.7391304 C79.1012093,14.3397326 78.775269,13 76.826087,13 C56.838426,13 41.7395748,13 31.173913,13 C29.3833142,13 28.870211,14.2404669 29,15.6086957 Z" id="tongue_path-1" />
    </defs>
    <g id="tongue_Mouth/Tongue" stroke="none" stroke-width="1" fill="none" fill-rule="evenodd">
        <mask id="tongue_mask-2" fill="white">
            <use xlink:href="#tongue_path-1" />
        </mask>
        <use id="tongue_Mouth" fill-opacity="0.699999988" fill="#000000" xlink:href="#tongue_path-1" />
        <path d="M44,2 L65,2 C67.7614237,2 70,4.23857625 70,7 L70,13 C70,15.7614237 67.7614237,18 65,18 L44,18 C41.2385763,18 39,15.7614237 39,13 L39,7 C39,4.23857625 41.2385763,2 44,2 Z" id="tongue_Teeth" fill="#FFFFFF" mask="url(#tongue_mask-2)" />
        <path d="M59.5,20 C63.0898509,20 66,21.5670034 66,23.5 C66,23.5829439 65.9946418,23.6652139 65.9841015,23.7467151 C65.9945755,23.8293228 66,23.9140279 66,24 L66,33 C66,39.0751322 61.0751322,44 55,44 L54,44 C47.9248678,44 43,39.0751322 43,33 L43,24 C43,23.9140279 43.0054245,23.8293228 43.0159499,23.7462082 C43.0053582,23.6652139 43,23.5829439 43,23.5 C43,21.5670034 45.9101491,20 49.5,20 C51.5110191,20 53.3087347,20.4917558 54.5010337,21.2641296 C55.6909749,20.4918353 57.4888185,20 59.5,20 Z" id="tongue_Tongue" fill="#FF4F6D" />
    </g>
</g>
            <g id="transparent_Nose" transform="translate(28.000000, 40.000000)" fill-opacity="0.16">
                
            <g id="small_Nose/Small" stroke="none" stroke-width="1" fill="none" fill-rule="evenodd"><path d="M20,7 C20,12.5228475 24.0470996,15 28,15 C31.9529004,15 36,12.5228475 36,7 C33.8327451,7.7317728 31.1406373,8.0976592 27.9236765,8.0976592 C24.7406373,8.0976592 22.0994118,7.7317728 20,7 Z" id="small_Nose" fill-opacity=".16" fill="#000" /></g></g>
            <g id="transparent_Eyes" transform="translate(0.000000, 8.000000)">
                
            <defs>
        <path d="M14,14.0481187 C23.6099827,14.0481187 28,18.4994466 28,11.5617716 C28,4.62409673 21.7319865,0 14,0 C6.2680135,0 0,4.62409673 0,11.5617716 C0,18.4994466 4.39001726,14.0481187 14,14.0481187 Z" id="squint_path-1" />
        <path d="M14,14.0481187 C23.6099827,14.0481187 28,18.4994466 28,11.5617716 C28,4.62409673 21.7319865,0 14,0 C6.2680135,0 0,4.62409673 0,11.5617716 C0,18.4994466 4.39001726,14.0481187 14,14.0481187 Z" id="squint_path-3" />
    </defs>
    <g id="squint_Eyes/Squint-😊" stroke="none" stroke-width="1" fill="none" fill-rule="evenodd">
        <g id="squint_Eye" transform="translate(16.000000, 13.000000)">
            <mask id="squint_mask-2" fill="white">
                <use xlink:href="#squint_path-1" />
            </mask>
            <use id="squint_The-white-stuff" fill="#FFFFFF" xlink:href="#squint_path-1" />
            <circle fill-opacity="0.699999988" fill="#000000" mask="url(#squint_mask-2)" cx="14" cy="10" r="6" />
        </g>
        <g id="squint_Eye" transform="translate(68.000000, 13.000000)">
            <mask id="squint_mask-4" fill="white">
                <use xlink:href="#squint_path-3" />
            </mask>
            <use id="squint_Eyeball-Mask" fill="#FFFFFF" xlink:href="#squint_path-3" />
            <circle fill-opacity="0.699999988" fill="#000000" mask="url(#squint_mask-4)" cx="14" cy="10" r="6" />
        </g>
    </g>
</g>
            <g id="transparent_Eyebrow" fill-opacity="0.599999964">
                
            <g id="up_down_Eyebrow/Outline/Up-Down" stroke="none" stroke-width="1" fill="none" fill-rule="evenodd" fill-opacity="0.599999964">
        <path d="M15.5914402,14.1619718 C20.0874642,7.83556966 29.6031809,4.65350252 39.3473715,7.79575991 C40.3986323,8.13476518 41.5256656,7.55736801 41.8646708,6.50610724 C42.2036761,5.45484647 41.6262789,4.32781316 40.5750182,3.98880789 C29.1665516,0.309863172 17.8358054,4.09887835 12.3309495,11.8448183 C11.6910852,12.7451779 11.9022584,13.9937761 12.8026181,14.6336404 C13.7029777,15.2735046 14.9515759,15.0623314 15.5914402,14.1619718 Z" id="up_down_Eyebrow" fill="#000000" fill-rule="nonzero" />
        <path d="M73.6376405,21.1577995 C77.5525501,15.6490895 88.2853148,12.56006 97.5304219,14.8304032 C98.6031199,15.0938282 99.6862617,14.4377829 99.9496867,13.3650849 C100.213112,12.2923868 99.5570664,11.2092451 98.4843684,10.9458201 C87.7477584,8.30920485 75.3194947,11.8862211 70.3771498,18.840646 C69.7372855,19.7410057 69.9484587,20.9896038 70.8488184,21.6294681 C71.749178,22.2693324 72.9977762,22.0581591 73.6376405,21.1577995 Z" id="up_down_Eyebrow" fill="#000000" fill-rule="nonzero" transform="translate(85.007549, 16.038421) scale(-1, 1) translate(-85.007549, -16.038421) " />
    </g>
</g>
        </g>
        <g id="transparent_Top">
            
        <defs>
        <filter x="-15.4%" y="-26.7%" width="130.8%" height="153.3%" filterUnits="objectBoundingBox" id="frida_filter-1">
            <feOffset dx="0" dy="2" in="SourceAlpha" result="shadowOffsetOuter1" />
            <feColorMatrix values="0 0 0 0 0   0 0 0 0 0   0 0 0 0 0  0 0 0 0.2 0" type="matrix" in="shadowOffsetOuter1" result="shadowMatrixOuter1" />
            <feMerge>
                <feMergeNode in="shadowMatrixOuter1" />
                <feMergeNode in="SourceGraphic" />
            </feMerge>
        </filter>
        <filter x="-26.7%" y="-13.8%" width="153.3%" height="127.6%" filterUnits="objectBoundingBox" id="frida_filter-2">
            <feOffset dx="0" dy="2" in="SourceAlpha" result="shadowOffsetOuter1" />
            <feColorMatrix values="0 0 0 0 0   0 0 0 0 0   0 0 0 0 0  0 0 0 0.2 0" type="matrix" in="shadowOffsetOuter1" result="shadowMatrixOuter1" />
            <feMerge>
                <feMergeNode in="shadowMatrixOuter1" />
                <feMergeNode in="SourceGraphic" />
            </feMerge>
        </filter>
        <filter x="-26.7%" y="-13.8%" width="153.3%" height="127.6%" filterUnits="objectBoundingBox" id="frida_filter-3">
            <feOffset dx="0" dy="2" in="SourceAlpha" result="shadowOffsetOuter1" />
            <feColorMatrix values="0 0 0 0 0   0 0 0 0 0   0 0 0 0 0  0 0 0 0.2 0" type="matrix" in="shadowOffsetOuter1" result="shadowMatrixOuter1" />
            <feMerge>
                <feMergeNode in="shadowMatrixOuter1" />
                <feMergeNode in="SourceGraphic" />
            </feMerge>
        </filter>
        <filter x="-15.4%" y="-15.4%" width="130.8%" height="130.8%" filterUnits="objectBoundingBox" id="frida_filter-4">
            <feOffset dx="0" dy="2" in="SourceAlpha" result="shadowOffsetOuter1" />
            <feColorMatrix values="0 0 0 0 0   0 0 0 0 0   0 0 0 0 0  0 0 0 0.2 0" type="matrix" in="shadowOffsetOuter1" result="shadowMatrixOuter1" />
            <feMerge>
                <feMergeNode in="shadowMatrixOuter1" />
                <feMergeNode in="SourceGraphic" />
            </feMerge>
        </filter>
        <filter x="-10.0%" y="-10.0%" width="120.0%" height="120.0%" filterUnits="objectBoundingBox" id="frida_filter-5">
            <feOffset dx="0" dy="2" in="SourceAlpha" result="shadowOffsetOuter1" />
            <feColorMatrix values="0 0 0 0 0   0 0 0 0 0   0 0 0 0 0  0 0 0 0.2 0" type="matrix" in="shadowOffsetOuter1" result="shadowMatrixOuter1" />
            <feMerge>
                <feMergeNode in="shadowMatrixOuter1" />
                <feMergeNode in="SourceGraphic" />
            </feMerge>
        </filter>
        <filter x="-10.8%" y="-10.8%" width="121.6%" height="121.6%" filterUnits="objectBoundingBox" id="frida_filter-6">
            <feOffset dx="0" dy="2" in="SourceAlpha" result="shadowOffsetOuter1" />
            <feColorMatrix values="0 0 0 0 0   0 0 0 0 0   0 0 0 0 0  0 0 0 0.2 0" type="matrix" in="shadowOffsetOuter1" result="shadowMatrixOuter1" />
            <feMerge>
                <feMergeNode in="shadowMatrixOuter1" />
                <feMergeNode in="SourceGraphic" />
            </feMerge>
        </filter>
        <filter x="-7.3%" y="-7.4%" width="114.5%" height="114.8%" filterUnits="objectBoundingBox" id="frida_filter-7">
            <feOffset dx="0" dy="2" in="SourceAlpha" result="shadowOffsetOuter1" />
            <feColorMatrix values="0 0 0 0 0   0 0 0 0 0   0 0 0 0 0  0 0 0 0.2 0" type="matrix" in="shadowOffsetOuter1" result="shadowMatrixOuter1" />
            <feMerge>
                <feMergeNode in="shadowMatrixOuter1" />
                <feMergeNode in="SourceGraphic" />
            </feMerge>
        </filter>
    </defs>
    <g id="frida_Top/Long-Hair/Frida" stroke="none" stroke-width="1" fill="none" fill-rule="evenodd" transform="translate(-1 0)">
        <g id="frida_Hair-Color" transform="translate(57.000000, 12.000000)" fill="#E8E1E1">
            <path d="M11.3492843,116.533683 C13.0868584,119.871186 16.3471518,122.289387 20.2091484,122.867272 C21.9518263,143.114813 34.4692242,160.28298 51.9999836,168.610943 L52.000464,172.811761 C51.1850526,172.935722 50.3500328,173 49.5,173 C42.6791665,173 36.8249844,168.861273 34.3117445,162.958111 C25.7540663,162.349267 19,155.213382 19,146.5 C19,145.028945 19.1925084,143.602853 19.553707,142.245541 C12.8577734,140.144667 8,133.88963 8,126.5 C8,123.000724 9.08930195,119.755868 10.9473112,117.086026 L11.1835429,116.755314 L11.3492843,116.533683 Z M140.650716,116.533683 C142.752567,119.30203 144,122.755338 144,126.5 C144,133.88963 139.142227,140.144667 132.445865,142.245925 C132.807492,143.602853 133,145.028945 133,146.5 C133,155.213382 126.245934,162.349267 117.687534,162.957922 C115.175016,168.861273 109.320834,173 102.5,173 C101.650314,173 100.815629,172.935774 100.000534,172.811913 L100.001014,168.610469 C117.531251,160.282329 130.048207,143.114429 131.791415,122.867236 C135.652848,122.289387 138.913142,119.871186 140.650716,116.533683 Z M87.5,0 C94.2951622,0 100.318133,3.30614263 104.048082,8.39759588 C106.357326,7.49493482 108.870864,7 111.5,7 C122.821837,7 132,16.1781626 132,27.5 C132,28.5394136 131.922643,29.5607596 131.773373,30.5585948 C138.814531,32.4415154 144,38.8651921 144,46.5 C144,49.043042 143.424694,51.451714 142.397132,53.602966 C146.969657,56.5348419 150,61.6635337 150,67.5 C150,72.2096819 148.026782,76.4584941 144.861968,79.4648154 C145.596488,81.3347076 146,83.3702311 146,85.5 C146,89.6749262 144.449437,93.4876989 141.892773,96.3938558 C141.196099,91.1831475 137.155659,87.0311195 132.000529,86.1660066 L132.001135,85.9356977 C131.973093,85.9573464 131.944937,85.9787805 131.916667,86 C129.013617,38.8448689 83.4324437,55.7478399 75.9963705,29.3232927 C68.5664869,55.7474433 22.9863486,38.8454221 20.0833333,86 L19.9998661,85.9364708 L19.9998661,85.9364708 L20.0004678,86.1658384 C14.8448544,87.0305763 10.80388,91.1827429 10.1066392,96.3932436 C7.55056309,93.4876989 6,89.6749262 6,85.5 C6,83.8551616 6.24067906,82.2665368 6.68874124,80.7674216 C2.63070645,77.7615924 0,72.9380134 0,67.5 C0,61.0067557 3.75072588,55.3895404 9.20381519,52.6967165 C8.42744762,50.7842145 8,48.6920251 8,46.5 C8,38.8651921 13.1854694,32.4415154 20.2266251,30.558753 C20.0773568,29.5607596 20,28.5394136 20,27.5 C20,16.1781626 29.1781626,7 40.5,7 C43.1291359,7 45.6426737,7.49493482 47.9525243,8.39671562 C51.6818665,3.30614263 57.7048378,0 64.5,0 C68.7625011,0 72.7211557,1.300921 76.0005805,3.52737944 C79.279645,1.30065788 83.23793,0 87.5,0 Z" />
        </g>
        <g id="frida_Ornamentos" transform="translate(67.000000, 0.000000)">
            <g id="frida_hoja" filter="url(#frida_filter-1)" opacity="0.899999976" transform="translate(120.000000, 64.500000) scale(1, -1) rotate(-20.000000) translate(-120.000000, -64.500000) translate(107.000000, 57.000000)" fill-rule="nonzero">
                <path d="M3.61111111,10 C3.61111111,10 1.95,0 13,0 C20.2222222,0 25.2777778,5.71428571 25.2777778,5.71428571 C25.2777778,5.71428571 19.8611111,14.2857143 11.5555556,14.2857143 C5.05555556,14.2857143 3.61111111,10 3.61111111,10 Z" id="frida_leaf" fill="#5DD362" />
                <path d="M25.2777778,5.71428571 C25.2777778,5.71428571 19.8611111,14.2857143 11.5555556,14.2857143 C7.22222222,14.2857143 5.12777778,12.3571429 4.18888889,11.0714286 C2.09444444,12.8571429 1.37222222,14.5 1.37222222,14.5714286 C1.3,14.8571429 1.01111111,15 0.722222222,15 C0.65,15 0.505555556,15 0.433333333,14.9285714 C0.0722222222,14.7857143 -0.0722222222,14.3571429 0.0722222222,14 C0.144444444,13.7857143 1.95,9.85714286 7.43888889,7.28571429 C15.3833333,3.14285714 25.2777778,5.71428571 25.2777778,5.71428571 Z" id="frida_leaf" fill="#42BC53" />
            </g>
            <g id="frida_hoja" filter="url(#frida_filter-2)" transform="translate(93.307368, 21.745191) scale(-1, -1) rotate(-120.000000) translate(-93.307368, -21.745191) translate(85.807368, 7.245191)">
                <path d="M15,12 C15,5.9 9,0 9,0 C9,0 1.7,4.3 1,13 C0.3,21.7 6.8,23.7 6.8,23.7 C6.8,23.7 15,20.8 15,12 Z" id="frida_leaf" fill="#5DD362" />
                <path d="M8,29 C8.1,29 8.2,29 8.3,28.9 C8.8,28.7 9.1,28.1 8.9,27.6 C8.4,26.1 8,24.7 7.8,23.2 C10,22.2 15,18.9 15,12 C15,5.9 9,0 9,0 C9,0 8.6,1.1 8,3 C8,3 8,3 8,3 C7.8,3.5 2.8,16.6 7.1,28.3 C7.2,28.7 7.6,29 8,29 Z" id="frida_leaf" fill="#42BC53" />
            </g>
            <g id="frida_hoja" filter="url(#frida_filter-3)" transform="translate(29.307368, 59.745191) rotate(-120.000000) translate(-29.307368, -59.745191) translate(21.807368, 45.245191)">
                <path d="M15,12 C15,5.9 9,0 9,0 C9,0 1.7,4.3 1,13 C0.3,21.7 6.8,23.7 6.8,23.7 C6.8,23.7 15,20.8 15,12 Z" id="frida_leaf" fill="#5DD362" />
                <path d="M8,29 C8.1,29 8.2,29 8.3,28.9 C8.8,28.7 9.1,28.1 8.9,27.6 C8.4,26.1 8,24.7 7.8,23.2 C10,22.2 15,18.9 15,12 C15,5.9 9,0 9,0 C9,0 8.6,1.1 8,3 C8,3 8,3 8,3 C7.8,3.5 2.8,16.6 7.1,28.3 C7.2,28.7 7.6,29 8,29 Z" id="frida_leaf" fill="#42BC53" />
            </g>
            <g id="frida_Flor" filter="url(#frida_filter-4)" transform="translate(13.000000, 42.000000) scale(-1, 1) translate(-13.000000, -42.000000) translate(0.000000, 29.000000)">
                <path d="M24.4244753,20.9561089 C25.2601813,19.8468762 25.6139026,18.4784184 25.4208747,17.1027473 C25.2278468,15.7270762 24.5099609,14.5094298 23.401533,13.6738657 C23.1024018,13.448127 22.7077101,13.2632031 22.2596302,13.1057873 C22.7130645,12.9646232 23.1137179,12.7934099 23.4204085,12.5786628 C25.7688628,10.9342574 26.3421384,7.68540233 24.6974016,5.33647474 C23.0526648,2.98754715 19.8036678,2.41507618 17.4552135,4.05948158 C17.148523,4.2742286 16.8506035,4.59216121 16.5623958,4.97030055 C16.5681989,4.4950724 16.5289465,4.06126726 16.4191304,3.70296871 C16.0132035,2.3748027 15.1137169,1.2836091 13.8873598,0.632188307 C12.6611446,-0.0200371698 11.2540931,-0.154883395 9.92559572,0.250570203 C7.18364131,1.0892266 5.6350141,4.00181908 6.47286581,6.7436316 C6.58216096,7.10017888 6.78669399,7.47891226 7.05541252,7.86771872 C6.6074755,7.71655089 6.18638481,7.62487741 5.81372806,7.61849197 C2.94678437,7.56848119 0.573854142,9.85989025 0.523370073,12.7271653 C0.504358584,13.8654889 0.853022045,14.9255192 1.46080913,15.7935291 C2.38423063,17.1113044 3.90375474,17.9869973 5.63218533,18.0167186 C6.00484208,18.0231041 6.42832327,17.945939 6.88109576,17.8108811 C6.59932552,18.1901555 6.38197496,18.5617056 6.2605192,18.9140724 C5.69762142,20.5489044 5.99965968,22.2756795 6.92293929,23.5942594 C7.53072638,24.4622693 8.40824188,25.1534041 9.48422896,25.5235908 C12.1953795,26.4571485 15.1603315,25.0102268 16.0934159,22.2994077 C16.2148717,21.947041 16.272275,21.5203224 16.2839005,21.0473654 C16.5573519,21.4328579 16.8436218,21.7550638 17.1409542,21.9792407 C18.2505182,22.81542 19.6186447,23.168668 20.9943157,22.9756401 C22.3707915,22.7827541 23.5887693,22.0653415 24.4244753,20.9561089 Z" fill="#4ACAD3" fill-rule="nonzero" />
                <path d="M11.178297,8.63990176 C10.9452631,7.87696713 11.3743225,7.06939957 12.1372572,6.83636565 C12.9001918,6.60333173 13.7077594,7.03239119 13.9407933,7.79532582 C14.1738272,8.55826044 13.7087793,11.9767907 13.7087793,11.9767907 C13.7087793,11.9767907 11.4113309,9.40283638 11.178297,8.63990176 Z M8.9355486,14.4373723 C8.1377895,14.4232361 7.50243635,13.7656743 7.5165726,12.9679152 C7.53070884,12.1701561 8.18827062,11.534803 8.98602972,11.5489392 C9.78378882,11.5630754 12.8914353,13.0618808 12.8914353,13.0618808 C12.8914353,13.0618808 9.73297629,14.4510353 8.9355486,14.4373723 Z M14.9931854,12.4189898 C14.9931854,12.4189898 16.7313261,9.4385895 17.3849366,8.98092648 C18.0385471,8.52326347 18.9389925,8.68203629 19.3966555,9.33564681 C19.8543185,9.98925733 19.6955457,10.8897027 19.0419352,11.3473657 C18.3883247,11.8050287 14.9931854,12.4189898 14.9931854,12.4189898 Z M11.9202121,19.2569641 C11.1657288,18.9973982 10.7651265,18.1754621 11.0246924,17.4209789 C11.2842584,16.6664957 13.670556,14.1745805 13.670556,14.1745805 C13.670556,14.1745805 14.0160946,17.6074345 13.7565287,18.3619178 C13.4966313,19.1159277 12.6746953,19.5165301 11.9202121,19.2569641 Z M17.2395979,17.2963365 C16.6023761,16.8164172 14.9694239,13.7771777 14.9694239,13.7771777 C14.9694239,13.7771777 18.3408473,14.5093818 18.978069,14.9893011 C19.6152908,15.4692204 19.7426018,16.3753059 19.2623511,17.0120544 C18.7824319,17.6492761 17.8763463,17.7765872 17.2395979,17.2963365 Z" fill="#FFFFFF" />
            </g>
            <g id="frida_Flor" filter="url(#frida_filter-5)" transform="translate(20.000000, 16.000000)">
                <path d="M30.5258511,33.0981022 L30.7843694,30.7838831 L33.0980227,30.5247992 C35.9451175,30.2051869 38.2084249,28.4080043 39.1519882,25.7142103 C40.2177395,22.6719541 39.217042,19.3553405 36.6052724,17.4325757 L34.7311566,16.052869 L35.6634061,13.9191036 C36.8915092,11.1127382 36.3082875,8.02353005 34.142278,5.85752056 C31.9762685,3.69151107 28.8870604,3.10828939 26.0801294,4.33582677 L23.9469296,5.26864203 L22.5666572,3.39396053 C20.6438924,0.78558504 17.3267131,-0.217940904 14.2844569,0.847810436 C11.5917943,1.79137373 9.79348029,4.05468111 9.4749994,6.90177585 L9.21591547,9.21542924 L6.90226208,9.47451317 C4.05460165,9.79355975 1.79129427,11.5918737 0.847730981,14.2845363 C-0.0896097682,16.9607941 0.549614762,19.8457897 2.51650298,21.812678 L2.51706867,21.8132437 C2.78576925,22.0819442 3.08049135,22.3348056 3.39388108,22.5656053 L5.26856258,23.9458777 L4.33518163,26.0796431 C3.10877562,28.8865742 3.6919973,31.9757823 5.85800679,34.1417918 C8.02401628,36.3078013 11.1132244,36.891023 13.9201555,35.664617 L16.0539209,34.731236 L17.4341933,36.6059175 C19.3513012,39.2165558 22.6741374,40.217819 25.7169593,39.1526333 C28.4096219,38.2079386 30.2073702,35.9451969 30.5258511,33.0981022 Z" fill="#FDB599" fill-rule="nonzero" />
                <path d="M22.8816016,25.1907295 C23.087511,25.9589303 22.6315686,26.7486271 21.8633678,26.9545366 C21.095167,27.1604461 20.3049044,26.703938 20.0995606,25.9363028 C19.8942168,25.1686677 20,20 20,20 C20,20 17.50759,24.5288775 16.9452987,25.0911688 C16.3835731,25.6528945 15.4711225,25.6534601 14.9088312,25.0911688 C14.3465399,24.5288775 14.3471055,23.6164269 14.9088312,23.0547013 C15.4711225,22.49241 20,20 20,20 C20,20 14.831898,20.1063489 14.0636972,19.9004394 C13.2954963,19.6945299 12.8395539,18.904833 13.0454634,18.1366322 C13.2513729,17.3684314 14.0410697,16.912489 14.8092705,17.1183984 C15.5774713,17.3243079 20,20 20,20 C20,20 17.3243079,15.5774713 17.1183984,14.8092705 C16.912489,14.0410697 17.3684314,13.2513729 18.1366322,13.0454634 C18.904833,12.8395539 19.6945299,13.2954963 19.9004394,14.0636972 C20.1063489,14.831898 20,20 20,20 C20,20 22.49241,15.4711225 23.0547013,14.9088312 C23.6169926,14.3465399 24.5288775,14.3465399 25.0911688,14.9088312 C25.6534601,15.4711225 25.6534601,16.3830074 25.0911688,16.9452987 C24.5288775,17.50759 20,20 20,20 C20,20 25.1686677,19.8942168 25.9363028,20.0995606 C26.703938,20.3049044 27.1604461,21.095167 26.9545366,21.8633678 C26.7486271,22.6315686 25.9589303,23.087511 25.1907295,22.8816016 C24.4225287,22.6756921 20,20 20,20 C20,20 22.6751264,24.421963 22.8816016,25.1907295 Z" fill="#FFFFFF" />
            </g>
            <g id="frida_Flor" filter="url(#frida_filter-6)" transform="translate(89.000000, 26.000000)">
                <path d="M34.7579072,29.8221549 C35.9471811,28.2436316 36.4505537,26.2962107 36.1758602,24.338525 C35.9011667,22.3808393 34.8795597,20.6480348 33.3021815,19.4589627 C32.8764948,19.1377192 32.3148182,18.8745582 31.6771661,18.6505434 C32.322438,18.4496561 32.8925986,18.2060063 33.3290428,17.9004048 C36.6710739,15.5602894 37.4868893,10.9369187 35.1463023,7.59421406 C32.8057153,4.25150941 28.1821427,3.43683918 24.8401115,5.77695456 C24.4036673,6.08255608 23.979705,6.53499864 23.5695632,7.07312001 C23.5778216,6.3968338 23.5219623,5.77949571 23.3656856,5.26960932 C22.7880204,3.37952692 21.5079818,1.82667448 19.7627813,0.899652591 C18.0177827,-0.0285144339 16.0154402,-0.220410986 14.1248862,0.356580673 C10.2228742,1.55005325 8.01905852,5.69489638 9.21138596,9.59670651 C9.36692136,10.1041007 9.6579876,10.6430675 10.0403947,11.196369 C9.40294591,10.9812455 8.80370145,10.8507871 8.27338223,10.8417001 C4.19350083,10.7705309 0.816638586,14.0313823 0.744795872,18.1117353 C0.717741062,19.7316573 1.21391599,21.2401619 2.07884376,22.4754068 C3.39294359,24.3507024 5.55534329,25.5968808 8.01503297,25.6391765 C8.54535219,25.6482635 9.14799849,25.5384516 9.79232859,25.3462538 C9.39134786,25.8859905 9.08204129,26.414735 8.9092004,26.9161799 C8.10815356,29.2426717 8.53797723,31.7000054 9.85187515,33.5764461 C10.7168029,34.811691 11.965575,35.7952289 13.4967874,36.322033 C17.3549631,37.6505575 21.5743179,35.5914767 22.9021688,31.7337725 C23.0750097,31.2323275 23.1566991,30.6250741 23.173243,29.95202 C23.5623854,30.5006054 23.9697696,30.9591293 24.3928963,31.2781502 C25.9718913,32.4680977 27.9188405,32.9707967 29.8765262,32.6961032 C31.8353571,32.4216117 33.5686332,31.4006783 34.7579072,29.8221549 Z" fill="#F7D30C" fill-rule="nonzero" />
                <path d="M15.9075765,12.2952448 C15.5759513,11.2095302 16.1865359,10.0602994 17.2722506,9.72867419 C18.3579653,9.397049 19.507196,10.0076336 19.8388212,11.0933483 C20.1704464,12.1790629 19.5086475,17.0438945 19.5086475,17.0438945 C19.5086475,17.0438945 16.2392017,13.3809595 15.9075765,12.2952448 Z M12.715973,20.5454914 C11.5807004,20.5253744 10.676544,19.5896134 10.696661,18.4543409 C10.716778,17.3190683 11.652539,16.4149119 12.7878115,16.4350289 C13.9230841,16.4551458 18.3455041,18.5880611 18.3455041,18.5880611 C18.3455041,18.5880611 13.850774,20.5649348 12.715973,20.5454914 Z M21.3364561,17.6731778 C21.3364561,17.6731778 23.8099641,13.4318389 24.7401021,12.7805492 C25.6702401,12.1292596 26.9516432,12.3552055 27.6029329,13.2853435 C28.2542225,14.2154816 28.0282766,15.4968846 27.0981386,16.1481743 C26.1680005,16.799464 21.3364561,17.6731778 21.3364561,17.6731778 Z M16.9633787,27.4041412 C15.889691,27.0347589 15.3196031,25.8650807 15.6889854,24.7913931 C16.0583677,23.7177054 19.4542528,20.1715184 19.4542528,20.1715184 C19.4542528,20.1715184 19.9459808,25.0567338 19.5765985,26.1304214 C19.2067446,27.2034356 18.0370664,27.7735236 16.9633787,27.4041412 Z M24.5332739,24.6140173 C23.6264583,23.9310553 21.3026416,19.6059836 21.3026416,19.6059836 C21.3026416,19.6059836 26.1004365,20.6479665 27.0072521,21.3309285 C27.9140676,22.0138905 28.095241,23.30332 27.4118074,24.209462 C26.7288453,25.1162776 25.4394159,25.297451 24.5332739,24.6140173 Z" fill="#FFFFFF" />
            </g>
            <g id="frida_Flor" filter="url(#frida_filter-7)" transform="translate(48.000000, 0.000000)">
                <path d="M54.1379237,31.5464048 C55.9625462,24.5630399 48.1438056,19.13187 45.1845324,17.3616591 C45.6989766,14.4276922 46.8574047,4.80065356 40.7169237,1.24584505 C34.6121663,-2.28828261 26.9236153,3.44959091 24.6013353,5.39402404 C24.4009276,5.26871855 24.1656352,5.12587117 23.8977086,4.97076479 C20.8314374,3.19565841 13.1300975,-0.380512394 7.84990403,4.73636964 C2.20473848,10.2044755 5.53732179,18.7392794 6.80518652,21.4340926 C4.64577053,23.4449497 -1.57937327,30.0260297 0.986877047,37.024011 C1.69277097,38.9530347 2.99822799,40.4795811 4.86875265,41.5624535 C8.89955964,43.8959428 14.4760657,43.5196765 16.591707,43.2691852 C17.5849083,45.1496134 20.4220029,49.9813784 24.4796026,52.3303784 C26.1496784,53.2972082 27.8550402,53.7431811 29.5502657,53.6552686 C36.4552712,53.2971895 39.4664791,43.6601819 40.2201879,40.7426742 C43.0812084,40.3465884 52.3062726,38.5442744 54.1379237,31.5464048 Z" fill="#FF7398" fill-rule="nonzero" />
                <path d="M27.7643057,25.6030632 C27.7643057,25.6030632 31.4492792,33.7908502 28.1176886,34.3138653 C24.7835165,34.8339614 26.6574825,25.7216143 26.6574825,25.7216143 C26.6574825,25.7216143 19.5457139,31.7290717 18.5074329,28.7503567 C17.4680864,25.7710249 26.208593,24.7024398 26.208593,24.7024398 C26.208593,24.7024398 18.2208741,20.0098596 20.8149072,17.8660564 C23.4089403,15.7222531 27.0309781,23.9576566 27.0309781,23.9576566 C27.0309781,23.9576566 28.975509,15.0385915 31.8514465,16.7035111 C34.727384,18.3684307 27.9942413,24.5153028 27.9942413,24.5153028 C27.9942413,24.5153028 36.8711392,23.5256765 36.3635103,26.8673556 C35.8586276,30.2092 27.7643057,25.6030632 27.7643057,25.6030632 Z" fill="#FFFFFF" />
            </g>
        </g>
        <g id="frida_Arete" transform="translate(182.000000, 129.000000)">
            <rect id="frida_Cadenita" fill="#E6E6E6" x="9" y="0" width="2" height="39" rx="1" />
            <polygon id="frida_Rayo" fill="#9177FF" fill-rule="nonzero" points="20 37 10.57 37 17 20 6 20 0 41 8.636 41 4 60" />
        </g>
        <g id="frida_Facial-Hair" transform="translate(49.000000, 72.000000)"><defs>
        <path d="M105.612044,67.1316942 C111.386129,69.3374281 116.495271,75.5829845 125.36175,72.8283797 C125.730639,72.7136458 126.091098,73.0449523 125.980498,73.408662 C124.607113,77.9183313 116.972736,81.0068878 114.378714,81.1080652 C103.039714,81.5495987 93.9060174,72.8306951 84.0009784,72.1615262 C74.0951698,72.8301081 64.9612417,81.5496135 53.6221945,81.1080652 C51.0278347,81.0068878 43.3937943,77.9183313 42.0204089,73.408662 C41.9094725,73.0449523 42.2699314,72.7136458 42.6388201,72.8283797 C51.5052994,75.5829845 56.6144416,69.3374281 62.3885276,67.1316942 C67.5783507,65.1488567 77.2089224,65.7112779 84.0008729,69.2973744 C90.7925576,65.7112249 100.422466,65.1489502 105.612044,67.1316942 Z" id="moustache_fancy_path-1" />
    </defs>
    <g id="moustache_fancy_Facial-Hair/Moustache-Fancy" stroke="none" stroke-width="1" fill="none" fill-rule="evenodd">
        <mask id="moustache_fancy_mask-2" fill="white">
            <use xlink:href="#moustache_fancy_path-1" />
        </mask>
        <use id="moustache_fancy_Moustache-U-a-Question" fill="#28354B" xlink:href="#moustache_fancy_path-1" />
        <g id="moustache_fancy_Facial-Hair-Color" mask="url(#moustache_fancy_mask-2)" fill="#A55728">
            <rect id="moustache_fancy_Color" x="0" y="0" width="168" height="152" />
        </g>
    </g>
</g>
        <g id="frida_Accessory" transform="translate(62.000000, 85.000000)"><g id="sunglasses_2_Accesories/Sunglasses" stroke="none" stroke-width="1" fill="none" fill-rule="evenodd"><path d="M88.420644,10.0315667 L111.711555,10.4879 L112.418885,10.5173904 C116.716907,10.7306495 119.842183,11.5608236 122.25907,15.0052776 L123.270648,15.0612226 C125.98538,15.2235685 128.815928,15.5199023 131.241565,16.6393667 C134.626236,18.2013667 135.149293,21.7387 130.882414,22.2260333 C128.960673,22.4457 127.036739,22.0827 125.144457,21.7450333 L124.805075,21.6912775 C125.908933,31.1522104 118.598088,42.5597165 110.577413,46.0372333 C99.6003746,50.7965667 87.3375086,45.5292333 81.5337832,36.0035667 C78.9077874,31.6933472 77.3913647,25.4882292 77.0679314,20.1428905 C76.2485064,19.7454964 75.4674464,19.2201465 74.7189648,18.8553 C72.7120473,17.8773 69.3809643,17.7566333 67.2126933,18.8553 C66.4674989,19.2329059 65.6844252,19.7618811 64.860867,20.1592462 C64.5358863,25.500774 63.019749,31.6993553 60.3955746,36.0058333 C54.5921826,45.5318333 42.3293166,50.7991667 31.352278,46.0395 C23.3308758,42.5619527 16.0191895,31.1527353 17.1248105,21.6913039 L16.7871634,21.7450333 L15.9116787,21.9004644 C14.302955,22.1806014 12.6752968,22.4119051 11.0492092,22.2260333 C6.7823325,21.7387 7.30538922,18.2013667 10.6900582,16.6393667 C13.4186633,15.3800781 16.6596437,15.1623841 19.6724863,15.0063698 C22.088769,11.5628588 25.2136434,10.7331687 29.5106444,10.5199823 L30.2178029,10.4905 L54.367281,10.0138705 C59.1910659,9.92297948 63.3004405,10.2797475 64.5415862,14.6398662 C66.6301126,13.8258114 69.0470363,13.3846333 70.8914864,13.3846333 C72.750063,13.3846333 75.2403142,13.8326884 77.3827667,14.6590316 C78.6884926,10.0210681 83.2241204,9.89209727 88.420644,10.0315667 Z M54.6792964,17.2841303 L53.1743719,17.2627916 C48.2545196,17.2171575 28.0180517,17.1530306 25.6158944,19.1491667 C23.2262624,21.1345 24.5340925,27.0731667 25.1565036,29.5561667 C26.2203032,33.7998333 28.6396056,38.0601667 32.1723805,40.7525 C35.160879,43.03 38.9870799,43.1875781 42.598636,42.8394006 L42.8137377,42.8154434 C42.5755438,42.8270989 44.279595,42.5883296 44.6288896,42.5222918 L44.6612747,42.5158333 C45.7297416,42.2861667 46.7985419,41.9835 47.8106684,41.5641667 C49.7165732,40.7748333 51.5084639,39.6188333 52.9776475,38.1685 C55.7666627,35.4145 56.9648125,31.7228333 57.6852359,27.9548333 C58.1572949,25.4871667 58.5553446,22.6705 58.1459601,20.1651667 C57.7671628,17.8464167 56.7581109,17.3549128 54.6792964,17.2841303 L54.6792964,17.2841303 Z M90.2432286,17.2498018 L87.6805515,17.2725667 C85.3089217,17.2952333 84.1877816,17.6892333 83.7837311,20.1625667 C83.3743466,22.6679 83.7723963,25.4845667 84.244122,27.9522333 C84.9648787,31.7202333 86.1630285,35.4119 88.9520437,38.1659 C90.4212273,39.6162333 92.213118,40.7722333 94.1190228,41.5619 C94.9624616,41.9110667 95.8452571,42.1794463 96.7344192,42.392116 L97.2684165,42.5132333 C97.5131654,42.5657289 99.2030063,42.8028032 99.1366495,42.8130415 L98.9855976,42.8019336 C102.697275,43.192883 106.673335,43.1001622 109.757311,40.7499 C113.290086,38.0575667 115.709388,33.7975667 116.773188,29.5539 L116.961141,28.7771479 C117.606864,25.9999642 118.480835,20.9475202 116.313797,19.1465667 C114.107164,17.3129068 96.8513244,17.2177679 90.2432286,17.2498018 L90.2432286,17.2498018 Z" id="sunglasses_2_Shape" fill-opacity=".16" fill="#000" /><g id="sunglasses_2_Sunglasses" transform="translate(8.000000, 8.000000)"><path d="M47.0104611,6.27728008 C49.5212682,6.30134922 50.7082016,6.72633117 51.1359635,9.39189846 C51.5693724,12.0919529 51.1479634,15.1275382 50.648202,17.7869984 C49.8855011,21.8478573 48.6170388,25.8264499 45.6643523,28.794498 C44.1089507,30.3575551 42.2119044,31.6034024 40.1941529,32.4540848 C39.1226305,32.9060098 37.9911085,33.2322006 36.8599395,33.4797175 C36.5292357,33.5519249 33.7060778,33.9478084 35.4375958,33.7466335 C31.3967988,34.2161613 27.0129452,34.1974808 23.6381438,31.5793333 C19.8980507,28.6777448 17.3367734,24.0862872 16.2105455,19.5127916 C15.5516086,16.8368063 14.1670294,10.4365709 16.6968952,8.29693227 C19.5948762,5.84547255 47.0104611,6.27728008 47.0104611,6.27728008 L47.0104611,6.27728008 Z" id="sunglasses_2_shades" fill-opacity=".7" fill="#150662" /><path d="M78.9192315,6.27468008 C76.4084239,6.29910846 75.2214902,6.72373117 74.7937283,9.38929846 C74.3603192,12.0893529 74.7817283,15.1249382 75.2811369,17.7843984 C76.0441909,21.8452573 77.3126534,25.8238499 80.2653406,28.791898 C81.8207425,30.3549551 83.7177893,31.6008024 85.7355412,32.4518441 C86.8070638,32.9034098 87.938586,33.2296006 89.0697553,33.4771175 C89.4004591,33.5493249 92.2232647,33.9455676 90.4920992,33.7440335 C94.5328971,34.2135613 98.9167517,34.1948808 102.291554,31.5767333 C106.031648,28.6751448 108.592926,24.0840464 109.719154,19.5105508 C110.378091,16.8342063 111.762317,10.4343302 109.232804,8.29433227 C106.334822,5.84287255 78.9192315,6.27468008 78.9192315,6.27468008 L78.9192315,6.27468008 Z" id="sunglasses_2_shades" fill-opacity=".7" fill="#150662" /><g id="sunglasses_2_Glasses" fill="#252C2F"><path d="M46.2491397,7.27516667 C48.6207695,7.2975 49.7419096,7.69183333 50.1459601,10.1651667 C50.5553446,12.6705 50.1572949,15.4871667 49.6852359,17.9548333 C48.9648125,21.7228333 47.7666627,25.4145 44.9776475,28.1685 C43.5084639,29.6188333 41.7165732,30.7748333 39.8106684,31.5641667 C38.7985419,31.9835 37.7297416,32.2861667 36.6612747,32.5158333 C36.3489024,32.5828333 33.6822357,32.9501667 35.3177735,32.7635 C31.5009631,33.1991667 27.3601122,33.1818333 24.1723805,30.7525 C20.6396056,28.0601667 18.2203032,23.7998333 17.1565036,19.5561667 C16.5340925,17.0731667 15.2262624,11.1345 17.6158944,9.14916667 C20.3532365,6.8745 46.2491397,7.27516667 46.2491397,7.27516667 L46.2491397,7.27516667 Z M22.2178029,0.4905 C16.7774562,0.677833333 13.1466691,1.63383333 10.4633337,7.06916667 C5.54571911,17.0301667 13.9627711,31.9688333 23.352278,36.0395 C34.3293166,40.7991667 46.5921826,35.5318333 52.3955746,26.0058333 C55.4689587,20.9621667 57.0224862,13.3231667 56.9224737,7.50383333 C56.7951245,0.0765 51.6071427,-0.1295 45.5090472,0.0338333333 L22.2178029,0.4905 Z" id="sunglasses_2_Frame" /><path d="M79.6805515,7.27256667 C77.3089217,7.29523333 76.1877816,7.68923333 75.7837311,10.1625667 C75.3743466,12.6679 75.7723963,15.4845667 76.244122,17.9522333 C76.9648787,21.7202333 78.1630285,25.4119 80.9520437,28.1659 C82.4212273,29.6162333 84.213118,30.7722333 86.1190228,31.5619 C87.1311493,31.9809 88.1999496,32.2835667 89.2684165,32.5132333 C89.5807888,32.5802333 92.2471221,32.9479 90.6119177,32.7609 C94.4287281,33.1965667 98.569579,33.1792333 101.757311,30.7499 C105.290086,28.0575667 107.709388,23.7975667 108.773188,19.5539 C109.395599,17.0705667 110.703095,11.1322333 108.313797,9.14656667 C105.576455,6.8719 79.6805515,7.27256667 79.6805515,7.27256667 L79.6805515,7.27256667 Z M103.711555,0.4879 C109.152235,0.675233333 112.783022,1.63156667 115.466357,7.06656667 C120.383639,17.0275667 111.96692,31.9662333 102.577413,36.0372333 C91.6003746,40.7965667 79.3375086,35.5292333 73.5337832,26.0035667 C70.4607325,20.9595667 68.907205,13.3205667 69.0068841,7.50123333 C69.1345667,0.0739 74.3225485,-0.1321 80.420644,0.0315666667 L103.711555,0.4879 Z" id="sunglasses_2_Frame" /><path d="M13.1969483,4.9267 C9.78501392,5.11836667 5.88606327,5.16436667 2.69005822,6.63936667 C-0.69461078,8.20136667 -1.2176675,11.7387 3.04920921,12.2260333 C4.97094906,12.4457 6.89488267,12.0827 8.78716336,11.7450333 C10.336903,11.4683667 12.4419791,11.5580333 13.9064752,10.9657 C16.6355213,9.86236667 16.4603333,4.74003333 13.1969483,4.9267" id="sunglasses_2_Frame" /><path d="M112.73467,4.9267 C116.146606,5.11836667 120.045559,5.16436667 123.241565,6.63936667 C126.626236,8.20136667 127.149293,11.7387 122.882414,12.2260333 C120.960673,12.4457 119.036739,12.0827 117.144457,11.7450333 C115.594717,11.4683667 113.489639,11.5580333 112.025143,10.9657 C109.295782,9.86236667 109.471283,4.74003333 112.73467,4.9267" id="sunglasses_2_Frame" /><path d="M73.1094302,7.01263333 C71.1631869,4.71263333 66.0912197,3.38463333 62.8914864,3.38463333 C59.6914198,3.38463333 54.7681378,4.71263333 52.8222279,7.01263333 C51.8407719,8.1723 51.8074344,9.72396667 53.5083137,10.4509667 C55.6262451,11.3566333 57.5174814,9.7143 59.2126933,8.8553 C61.3809643,7.75663333 64.7120473,7.8773 66.7189648,8.8553 C68.4271783,9.68796667 70.3050797,11.3566333 72.4233444,10.4509667 C74.1242237,9.72396667 74.0908862,8.1723 73.1094302,7.01263333" id="sunglasses_2_Frame" /></g></g></g></g>
    </g>
</g>
    </g>
</svg>