<svg xmlns="http://www.w3.org/2000/svg" xmlns:ns2="http://design.blush" xmlns:xlink="http://www.w3.org/1999/xlink" width="264px" height="280px" viewBox="0 0 264 280" version="1.1">
    <title id="transparent_Title">Avataaar/Default</title>
    <desc>Created with python_avatars</desc>
    <defs>
        <path d="M100,0 C130.927946,-5.68137151e-15 156,25.072054 156,56 L156.000809,62.1660527 C161.675838,63.1185422 166,68.05429 166,74 L166,88 C166,94.0524166 161.519235,99.0582945 155.693975,99.8813638 C153.627928,119.686472 141.237929,136.421678 124.001014,144.610469 L124,163 L128,163 C167.764502,163 200,195.235498 200,235 L200,244 L0,244 L0,235 C-4.86974701e-15,195.235498 32.235498,163 72,163 L76,163 L75.9999836,144.610943 C58.7625487,136.422324 46.3721119,119.686854 44.3051107,99.8809698 C38.480765,99.0582945 34,94.0524166 34,88 L34,74 C34,68.053942 38.3246685,63.1179645 44.0001873,62.1658855 L44,56 C44,25.072054 69.072054,5.68137151e-15 100,0 Z" id="transparent_path-1" />
        <path d="M83,36.3476251 C83,52.6289957 105.161905,65.8276544 132.5,65.8276544 C159.838095,65.8276544 182,52.6289957 182,36.3476251 C182,34.9853134 181.844841,33.6445843 181.544472,32.3313638 C210.784239,41.4879251 232,68.792221 232,101.051724 L232,110 L32,110 L32,101.051724 C32,68.3970853 53.7386736,40.8197864 83.5337207,32.0021267 C83.1821692,33.4207025 83,34.871494 83,36.3476251 Z" id="transparent_path-3" />
        <rect id="transparent_path-5" x="0" y="0" width="264" height="280" />
        <path d="M74,0 C114.869071,0 148,33.1309285 148,74 L148,84.1482318 L148,197.608051 C135.525121,187.236892 119.490913,181 102,181 L102,181 L98,181 L98,162.610951 C115.530782,154.282984 128.048193,137.114792 129.791419,116.867187 C135.569129,116.002364 140,111.018625 140,105 L140,105 L140,92 C140,87.3536213 137.359271,83.3240177 133.496777,81.3301515 C132.723933,81.0500337 131.951808,80.748163 131.180891,80.4262497 C130.794819,80.3202581 130.400778,80.2331546 130,80.1659169 L130,80.1659169 L130.000458,79.9172528 C117.224481,74.2339715 104.877985,63.0706967 96.1104311,47.8848473 C93.1752556,42.8009742 90.8310687,37.5951441 89.0661426,32.3970356 C80.4313947,42.9409152 67.7445474,53.6023901 52.3415164,62.4953343 C42.777598,68.0170651 33.1467898,72.2910056 24,75.2659587 L24.0003852,137.246608 C29.6019576,148.318362 38.7728825,157.277529 50,162.610951 L50,162.610951 L50,181 L46,181 C38.3273639,181 30.9350359,182.200142 24.0004995,184.422941 L24,230 C24,244.105888 13.5691766,255.775526 0,257.716445 L0,74 C0,33.1309285 33.1309285,0 74,0 Z" id="transparent_path-7" />
    </defs>
    <g id="transparent_Avataaar/Default" stroke="none" stroke-width="1" fill="none" fill-rule="evenodd">
        <g id="transparent_Body" transform="translate(32.000000, 36.000000)">
            <mask id="transparent_mask-2" fill="white">
                <use xlink:href="#transparent_path-1" />
            </mask>
            <use fill="#D0C6AC" xlink:href="#transparent_path-1" />
            <g id="transparent_Skin-Color" mask="url(#transparent_mask-2)" fill="#FFDBB4">
                <g transform="translate(-32.000000, 0.000000)" id="transparent_Color">
                    <rect x="0" y="0" width="264" height="244" />
                </g>
            </g>
            <path d="M44,94 C44,124.927946 69.072054,150 100,150 C130.927946,150 156,124.927946 156,94 L156,94 L156,102 C156,132.927946 130.927946,158 100,158 C69.072054,158 44,132.927946 44,102 Z" id="transparent_Neck-Shadow" fill-opacity="0.100000001" fill="#000000" mask="url(#transparent_mask-2)" />
        </g>
        <g id="transparent_Clothing" transform="translate(0.000000, 170.000000)">
            
        </g>
        <g id="transparent_Face" transform="translate(76.000000, 82.000000)" fill="#000000">
            <g id="transparent_Mouth" transform="translate(2.000000, 52.000000)">    
                
            <g id="disbelief_Mouth/Disbelief" stroke="none" stroke-width="1" fill="none" fill-rule="evenodd" fill-opacity="0.699999988">
        <path d="M40,15 C40,22.7319865 46.2680135,29 54,29 L54,29 C61.7319865,29 68,22.7319865 68,15" id="disbelief_Mouth" fill="#000000" transform="translate(54.000000, 22.000000) scale(1, -1) translate(-54.000000, -22.000000) " />
    </g>
</g>
            <g id="transparent_Nose" transform="translate(28.000000, 40.000000)" fill-opacity="0.16">
                
            <g id="small_Nose/Small" stroke="none" stroke-width="1" fill="none" fill-rule="evenodd"><path d="M20,7 C20,12.5228475 24.0470996,15 28,15 C31.9529004,15 36,12.5228475 36,7 C33.8327451,7.7317728 31.1406373,8.0976592 27.9236765,8.0976592 C24.7406373,8.0976592 22.0994118,7.7317728 20,7 Z" id="small_Nose" fill-opacity=".16" fill="#000" /></g></g>
            <g id="transparent_Eyes" transform="translate(0.000000, 8.000000)">
                
            <g id="heart_Eyes/Hearts-ðŸ˜" stroke="none" stroke-width="1" fill="none" fill-rule="evenodd" fill-opacity="0.8">
        <path d="M35.9583333,10 C33.4074091,10 30.8837273,11.9797894 29.5,13.8206358 C28.1106364,11.9797894 25.5925909,10 23.0416667,10 C17.5523182,10 14,13.3341032 14,17.6412715 C14,23.3708668 18.4118636,26.771228 23.0416667,30.376724 C24.695,31.6133636 27.8223436,34.7777086 28.2083333,35.470905 C28.5943231,36.1641015 30.3143077,36.1885229 30.7916667,35.470905 C31.2690257,34.7532872 34.3021818,31.6133636 35.9583333,30.376724 C40.5853182,26.771228 45,23.3708668 45,17.6412715 C45,13.3341032 41.4476818,10 35.9583333,10 Z" id="heart_Heart" fill="#FF5353" fill-rule="nonzero" />
        <path d="M88.9583333,10 C86.4074091,10 83.8837273,11.9797894 82.5,13.8206358 C81.1106364,11.9797894 78.5925909,10 76.0416667,10 C70.5523182,10 67,13.3341032 67,17.6412715 C67,23.3708668 71.4118636,26.771228 76.0416667,30.376724 C77.695,31.6133636 80.8223436,34.7777086 81.2083333,35.470905 C81.5943231,36.1641015 83.3143077,36.1885229 83.7916667,35.470905 C84.2690257,34.7532872 87.3021818,31.6133636 88.9583333,30.376724 C93.5853182,26.771228 98,23.3708668 98,17.6412715 C98,13.3341032 94.4476818,10 88.9583333,10 Z" id="heart_Heart" fill="#FF5353" fill-rule="nonzero" />
    </g>
</g>
            <g id="transparent_Eyebrow" fill-opacity="0.599999964">
                
            <g id="angry_Eyebrow/Outline/Angry" stroke="none" stroke-width="1" fill="none" fill-rule="evenodd" fill-opacity="0.599999964">
        <path d="M15.6114904,15.1845247 C19.8515017,9.41618792 22.4892046,9.70087612 28.9238518,14.5564693 C29.1057771,14.6937504 29.2212592,14.7812575 29.5936891,15.063789 C34.4216439,18.7263562 36.7081807,20 40,20 C41.1045695,20 42,19.1045695 42,18 C42,16.8954305 41.1045695,16 40,16 C37.9337712,16 36.0986396,14.9777974 32.011227,11.8770179 C31.6358269,11.5922331 31.5189458,11.5036659 31.3332441,11.3635351 C27.5737397,8.52660822 25.3739873,7.28738405 22.6379899,6.99208688 C18.9538127,6.59445233 15.5799484,8.47367246 12.3885096,12.8154753 C11.7343147,13.7054768 11.9254737,14.9572954 12.8154753,15.6114904 C13.7054768,16.2656853 14.9572954,16.0745263 15.6114904,15.1845247 Z" id="angry_Eyebrow" fill="#000000" fill-rule="nonzero" />
        <path d="M73.6114904,15.1845247 C77.8515017,9.41618792 80.4892046,9.70087612 86.9238518,14.5564693 C87.1057771,14.6937504 87.2212592,14.7812575 87.5936891,15.063789 C92.4216439,18.7263562 94.7081807,20 98,20 C99.1045695,20 100,19.1045695 100,18 C100,16.8954305 99.1045695,16 98,16 C95.9337712,16 94.0986396,14.9777974 90.011227,11.8770179 C89.6358269,11.5922331 89.5189458,11.5036659 89.3332441,11.3635351 C85.5737397,8.52660822 83.3739873,7.28738405 80.6379899,6.99208688 C76.9538127,6.59445233 73.5799484,8.47367246 70.3885096,12.8154753 C69.7343147,13.7054768 69.9254737,14.9572954 70.8154753,15.6114904 C71.7054768,16.2656853 72.9572954,16.0745263 73.6114904,15.1845247 Z" id="angry_Eyebrow" fill="#000000" fill-rule="nonzero" transform="translate(84.999934, 13.470064) scale(-1, 1) translate(-84.999934, -13.470064) " />
    </g>
</g>
        </g>
        <g id="transparent_Top">
            
        <g id="chef_cap_Hairstyle/Chef Cap" stroke="none" stroke-width="1" fill="none" fill-rule="evenodd">
        <path d="M157.153901,86.8089233 C152.875387,89.8881087 146.944923,92.9808041 139.003339,94.8379429 C136.837339,95.3439429 135.362339,92.6699429 136.935339,91.0969429 C139.768339,88.2649429 143.008339,84.5939429 144.867339,81.0529429 C144.867339,81.0529429 136.0888,78.4632 121.9228,83.7302 C106.4998,88.3702 97.8288,97.5112 93.9378,102.7262 C92.7908,104.2642 90.3508,103.7092 89.9808,101.8262 C89.1828,97.7572 86.5968,95.6059946 89.9808,89.6839946 C89.9808,89.6839946 79.1388,95.9192 78.2588,115.8782 C78.1848,117.5582 75.9728,118.1062 75.1048,116.6642 C69.7248,107.7222 67.4671732,102.9032 80.3581732,82.1422 L93.9378,72.7286002 C92.3138,74.3526002 188.3288,65.5731292 188.3288,92.4531292 C188.3288,107.226129 203.572389,114.692493 191.3288,118.2352 C188.3288,119.103256 174.3208,102.5312 176.6818,92.9052 L173.5288,96.6082 C173.0408,98.5932 164.97823,94.6240921 164.97823,87.2283756 C164.97823,87.2283756 163.825444,82.0075086 157.153901,86.8089233 Z" id="chef_cap_Fill-1" fill="#724133" ns2:color="Hair-500" />
        <g id="chef_cap_Facial-Hair" transform="translate(49.000000, 72.000000)" />
        <g id="chef_cap_Accessory" transform="translate(62.000000, 85.000000)" />
        <g id="chef_cap_Chef_cap" transform="translate(63.000000, -13.000000)">
            <path d="M139.2275,26.4269 C139.2275,16.0449 123.6435,7.6289 104.4205,7.6289 C102.2365,7.6289 100.1035,7.7419 98.0315,7.9499 C91.7265,3.1419 81.3525,-0.0001 69.6135,-0.0001 C57.8745,-0.0001 47.5005,3.1419 41.1965,7.9499 C39.1235,7.7419 36.9905,7.6289 34.8065,7.6289 C15.5835,7.6289 -0.0005,16.0449 -0.0005,26.4269 C-0.0005,32.5069 5.3485,37.9089 13.6385,41.3449 L13.6385,85.0089 L125.0395,85.0089 L125.0395,41.5699 C133.6415,38.1479 139.2275,32.6399 139.2275,26.4269" id="chef_cap_Fill-1" fill="#F4F4F4" />
            <path d="M16.2065,104.153 C30.0265,94.449 68.7285,74.479 122.8585,105.36 C125.2555,106.727 128.2395,104.999 128.2395,102.239 L128.2395,89.302 C128.2395,88.334 127.8485,87.41 127.1465,86.743 C122.6145,82.443 103.9015,66.955 69.4375,66.955 C35.0165,66.955 16.1485,82.404 11.5435,86.727 C10.8235,87.403 10.4275,88.348 10.4373151,89.335 L10.5605,101.231 C10.5905,104.117 13.8445,105.811 16.2065,104.153" id="chef_cap_Fill-4" fill="#F7F9F9" />
            <path d="M69.6338,55.966 L69.6338,55.966 C68.3148,55.966 67.2458,54.897 67.2458,53.578 L67.2458,29.748 C67.2458,28.429 68.3148,27.36 69.6338,27.36 C70.9528,27.36 72.0218,28.429 72.0218,29.748 L72.0218,53.578 C72.0218,54.897 70.9528,55.966 69.6338,55.966" id="chef_cap_Fill-6" fill="#F7F9F9" />
            <path d="M98.0439,59.4919 L98.0439,59.4919 C96.7259,59.4919 95.6559,58.4229 95.6559,57.1039 L95.6559,33.2739 C95.6559,31.9549 96.7259,30.8859 98.0439,30.8859 C99.3629,30.8859 100.4329,31.9549 100.4329,33.2739 L100.4329,57.1039 C100.4329,58.4229 99.3629,59.4919 98.0439,59.4919" id="chef_cap_Fill-8" fill="#F7F9F9" />
            <path d="M39.9233,59.4919 L39.9233,59.4919 C38.6043,59.4919 37.5353,58.4229 37.5353,57.1039 L37.5353,33.2739 C37.5353,31.9549 38.6043,30.8859 39.9233,30.8859 C41.2423,30.8859 42.3113,31.9549 42.3113,33.2739 L42.3113,57.1039 C42.3113,58.4229 41.2423,59.4919 39.9233,59.4919" id="chef_cap_Fill-10" fill="#F7F9F9" />
        </g>
    </g>
</g>
    </g>
</svg>